{"title":"Gabi.2012.KOREA.720p.HDRip.x264.AC3-JYK","uid":7442988,"size":2724903395,"categoryP":"video","categoryS":"hd___movies","magnet":"?xt=urn:btih:1979497db06d5934b7ea6d7cb0d4ae932e0a10c1&amp;dn=Gabi.2012.KOREA.720p.HDRip.x264.AC3-JYK&amp;tr=udp%3A%2F%2Ftracker.openbittorrent.com%3A80&amp;tr=udp%3A%2F%2Fopen.demonii.com%3A1337&amp;tr=udp%3A%2F%2Ftracker.coppersurfer.tk%3A6969&amp;tr=udp%3A%2F%2Fexodus.desync.com%3A6969","seeders":2,"leechers":3,"uploader":"xxbel","files":-1,"time":1342279482,"description":"General\nComplete name                  : Gabi.2012.KOREA.720p.HDRip.x264.AC3-JYK.mkv\nFormat                         : Matroska\nFormat version                 : Version 2\nFile size                      : 2.54 GiB\nDuration                       : 1h 56mn\nOverall bit rate               : 3 129 Kbps\n\nVideo\nID                             : 1\nFormat                         : AVC\nFormat/Info                    : Advanced Video Codec\nFormat profile                 : &lt;a class=&quot;__cf_email__&quot; href=&quot;/cdn-cgi/l/email-protection&quot; data-cfemail=&quot;f2ba9b959ab2bec6dcc3&quot;&gt;[email&amp;#160;protected]&lt;/a&gt;&lt;script cf-hash='f9e31' type=&quot;text/javascript&quot;&gt;\n/* &lt;![CDATA[ */!function(){try{var t=&quot;currentScript&quot;in document?document.currentScript:function(){for(var t=document.getElementsByTagName(&quot;script&quot;),e=t.length;e--;)if(t[e].getAttribute(&quot;cf-hash&quot;))return t[e]}();if(t&amp;&amp;t.previousSibling){var e,r,n,i,c=t.previousSibling,a=c.getAttribute(&quot;data-cfemail&quot;);if(a){for(e=&quot;&quot;,r=parseInt(a.substr(0,2),16),n=2;a.length-n;n+=2)i=parseInt(a.substr(n,2),16)^r,e+=String.fromCharCode(i);e=document.createTextNode(e),c.parentNode.replaceChild(e,c)}}}catch(u){}}();/* ]]&gt; */&lt;/script&gt;\nFormat settings, CABAC         : Yes\nFormat settings, ReFrames      : 4 frames\nCodec ID                       : V_MPEG4/ISO/AVC\nDuration                       : 1h 56mn\nBit rate                       : 2 850 Kbps\nWidth                          : 1 280 pixels\nHeight                         : 528 pixels\nDisplay aspect ratio           : 2.40:1\nFrame rate                     : 30.000 fps\nColor space                    : YUV\nChroma subsampling             : 4:2:0\nBit depth                      : 8 bits\nScan type                      : Progressive\nBits/(Pixel*Frame)             : 0.141\nStream size                    : 2.28 GiB (90%)\nWriting library                : x264 core 122 r2184bm 5c85e0a\n\nAudio\nID                             : 2\nFormat                         : AC-3\nFormat/Info                    : Audio Coding 3\nMode extension                 : CM (complete main)\nCodec ID                       : A_AC3\nDuration                       : 1h 56mn\nBit rate mode                  : Constant\nBit rate                       : 256 Kbps\nChannel(s)                     : 2 channels\nChannel positions              : Front: L R\nSampling rate                  : 48.0 KHz\nBit depth                      : 16 bits\nCompression mode               : Lossy\nStream size                    : 213 MiB (8%)\nScreencaps &lt;a href=&quot;\nhttp://www.asiatorrents.com/imgz/images/NlB2.jpg&quot; rel=&quot;nofollow&quot; target=&quot;_NEW&quot;&gt;\nhttp://www.asiatorrents.com/imgz/images/NlB2.jpg&lt;/a&gt;\n &lt;a href=&quot;\nhttp://www.koreanfilm.or.kr/jsp/films/index/filmsView.jsp?movieCd=20111774&quot; rel=&quot;nofollow&quot; target=&quot;_NEW&quot;&gt;\nhttp://www.koreanfilm.or.kr/jsp/films/index/filmsView.jsp?movieCd=20111774&lt;/a&gt;","torrent":{"xt":"urn:btih:1979497db06d5934b7ea6d7cb0d4ae932e0a10c1","amp;dn":"Gabi.2012.KOREA.720p.HDRip.x264.AC3-JYK","amp;tr":["udp%3A%2F%2Ftracker.openbittorrent.com%3A80","udp%3A%2F%2Fopen.demonii.com%3A1337","udp%3A%2F%2Ftracker.coppersurfer.tk%3A6969","udp%3A%2F%2Fexodus.desync.com%3A6969"],"infoHash":"1979497db06d5934b7ea6d7cb0d4ae932e0a10c1","infoHashBuffer":{"type":"Buffer","data":[25,121,73,125,176,109,89,52,183,234,109,124,176,212,174,147,46,10,16,193]},"announce":[],"urlList":[]}}